<?xml version="1.0" encoding="iso-8859-1"?>
<!-- Generator: Adobe Illustrator 19.0.0, SVG Export Plug-In . SVG Version: 6.00 Build 0)  -->
<svg xmlns="http://www.w3.org/2000/svg" xmlns:xlink="http://www.w3.org/1999/xlink" version="1.1" id="Capa_1" x="0px" y="0px" viewBox="0 0 352 352" style="enable-background:new 0 0 352 352;" xml:space="preserve" width="512px" height="512px">
<g>
	<g>
		<path d="M164,118.8c-14.8,0-26.8,12-26.8,26.8c0,14.8,12,26.8,26.8,26.8c14.8,0,26.8-12,26.8-26.8S178.8,118.8,164,118.8z     M164.4,162c-9.2,0-16.4-7.2-16.4-16.4c0-9.2,7.2-16.4,16.4-16.4c9.2,0,16.4,7.2,16.4,16.4C180.8,154.8,173.2,162,164.4,162z" fill="#0fb1d4"/>
	</g>
</g>
<g>
	<g>
		<path d="M164.4,20.8C143.2,20.8,126,38,126,59.2c-0.4,20.8,16.8,38.4,38.4,38.4c21.2,0,38.4-17.2,38.4-38.4S185.6,20.8,164.4,20.8    z M164.4,87.6c-15.6,0-28.4-12.8-28.4-28.4c0-16,12.8-28.4,28.4-28.4c15.6,0,28.4,12.8,28.4,28.4C192.8,74.8,180,87.6,164.4,87.6z    " fill="#0fb1d4"/>
	</g>
</g>
<g>
	<g>
		<path d="M284.4,110c-4.8-16.4-20-27.6-36.8-27.6c-3.6,0-7.2,0.4-10.8,1.6c-20.4,6-32,27.6-26,48c4.8,16.4,20,27.6,36.8,27.6    c3.6,0,7.2-0.4,10.8-1.6C278.8,152,290.4,130.4,284.4,110z M255.2,148c-2.8,0.8-5.2,1.2-8,1.2c-12.4,0-23.6-8.4-27.2-20.4    c-4.4-14.8,4-30.8,19.2-35.2c2.8-0.8,5.2-1.2,8-1.2c12.4,0,23.6,8.4,27.2,20.4C278.8,128,270.4,143.6,255.2,148z" fill="#0fb1d4"/>
	</g>
</g>
<g>
	<g>
		<path d="M245.6,194.4C238.4,184,226.4,178,214,178c-8,0-15.6,2.4-22,7.2c-17.2,12.4-21.6,36.4-9.2,53.6    c7.2,10.4,19.2,16.4,31.6,16.4c8,0,15.6-2.4,22-7.2C253.6,235.6,258,211.6,245.6,194.4z M242,221.2c-1.2,7.6-5.6,14-11.6,18.4    c-4.8,3.2-10.4,5.2-16.4,5.2c-9.2,0-18-4.4-23.2-12c-8.8-12.8-6-30.4,6.8-39.6c4.8-3.2,10.4-5.2,16.4-5.2c9.2,0,18,4.4,23.2,12    C241.6,206.4,243.2,214,242,221.2z" fill="#0fb1d4"/>
	</g>
</g>
<g>
	<g>
		<path d="M135.6,184.4c-6.8-4.8-14.4-7.6-22.8-7.6c-12.4,0-24,6-31.2,15.6c-12.4,17.2-8.8,41.2,8.4,54c6.8,4.8,14.4,7.6,22.8,7.6    c12.4,0,24-6,31.2-15.6C156.8,221.2,152.8,196.8,135.6,184.4z M136,232.4c-5.2,7.2-14,11.6-22.8,11.6c-6,0-12-2-16.8-5.6    c-12.4-9.2-15.2-26.8-6-39.6c5.2-7.2,14-11.6,22.8-11.6c6,0,12,2,16.8,5.6C142.4,202,145.2,219.6,136,232.4z" fill="#0fb1d4"/>
	</g>
</g>
<g>
	<g>
		<path d="M92.8,83.6c-3.6-1.2-7.6-1.6-11.2-1.6c-17.2,0-32,10.8-36.8,27.2c-6.4,20.4,5.2,42,25.6,48c3.6,1.2,7.6,1.6,11.2,1.6    c16.8,0,31.6-11.2,36.8-27.2C124.8,111.2,113.2,89.6,92.8,83.6z M108.8,128.4c-3.6,12-14.4,20-27.2,20c-2.8,0-5.6-0.4-8.4-1.2    C58,142.8,49.6,126.8,54.4,112c3.6-12,14.4-20,27.2-20c2.8,0,5.6,0.4,8.4,1.2C104.8,97.6,113.2,113.6,108.8,128.4z" fill="#0fb1d4"/>
	</g>
</g>
<g>
	<g>
		<path d="M332.8,305.2c0-0.4-10.8-50.8-63.2-59.2c24.8-26,40.4-61.6,40.4-100.4C309.6,65.2,244.4,0,164.4,0    C84,0,18.8,65.2,18.8,145.6S84,291.2,164.4,291.2c7.6,0,14.8-0.4,22-1.6c3.6-0.4,68.4-5.6,89.6,55.6l2.4,6.8l54.8-43.6    L332.8,305.2z M164.4,280.8c-74.8,0-135.2-60.8-135.2-135.2S90,10.4,164.4,10.4s135.2,60.8,135.2,135.2S238.8,280.8,164.4,280.8z     M282.8,335.2c-14.8-35.6-44.4-48.8-67.2-53.6c16.4-6,31.2-15.2,44-26.4c45.6,2.8,59.2,38.4,62.4,49.2L282.8,335.2z" fill="#0fb1d4"/>
	</g>
</g>
<g>
</g>
<g>
</g>
<g>
</g>
<g>
</g>
<g>
</g>
<g>
</g>
<g>
</g>
<g>
</g>
<g>
</g>
<g>
</g>
<g>
</g>
<g>
</g>
<g>
</g>
<g>
</g>
<g>
</g>
</svg>
