<?xml version="1.0" encoding="iso-8859-1"?>
<!-- Generator: Adobe Illustrator 19.0.0, SVG Export Plug-In . SVG Version: 6.00 Build 0)  -->
<svg xmlns="http://www.w3.org/2000/svg" xmlns:xlink="http://www.w3.org/1999/xlink" version="1.1" id="Capa_1" x="0px" y="0px" viewBox="0 0 512 512" style="enable-background:new 0 0 512 512;" xml:space="preserve" width="512px" height="512px">
<g>
	<g>
		<g>
			<path d="M5.012,25.321c0.881,0.507,18.066,10.32,47.805,21.994l8.762,136.108c0.269,4.172,3.104,7.737,7.109,8.937     c0.948,0.284,1.913,0.421,2.869,0.421c3.083,0,6.061-1.429,7.983-3.977l83.53-110.687c8.441,1.473,17.172,2.808,26.18,3.946     v132.038c0,3.995,2.377,7.606,6.047,9.186c1.273,0.548,2.617,0.815,3.951,0.814c2.51,0,4.983-0.945,6.878-2.738l50.137-47.471     l49.611,46.971c2.902,2.747,7.16,3.504,10.828,1.924c3.669-1.579,6.047-5.191,6.047-9.186V82.018     c8.542-1.092,16.84-2.358,24.874-3.756l84.023,110.569c1.924,2.532,4.892,3.95,7.963,3.95c0.961,0,1.933-0.139,2.885-0.426     c3.997-1.205,6.825-4.766,7.094-8.932l8.767-136.2c30.275-11.955,47.783-22.064,48.672-22.582     c4.772-2.777,6.387-8.894,3.612-13.666c-2.773-4.773-8.893-6.393-13.668-3.622c-0.255,0.147-25.953,14.948-68.392,29.543     C389.539,50.322,327.906,66.327,256,66.327c-71.921,0-133.565-15.834-172.613-29.118C40.943,22.771,15.24,8.131,14.985,7.985     C10.201,5.234,4.09,6.88,1.335,11.665C-1.42,16.451,0.226,22.565,5.012,25.321z M435.644,55.615     c0.736-0.254,1.454-0.508,2.18-0.762l-6.471,100.533l-61.84-81.377C395.383,68.457,417.789,61.777,435.644,55.615z      M209.251,84.218c11.738,1.049,23.862,1.741,36.307,1.995l0.256,36.31c0.038,5.499,4.508,9.93,9.998,9.93     c0.024,0,0.048,0,0.072,0c5.522-0.039,9.969-4.547,9.93-10.07l-0.255-36.154c12.754-0.242,25.176-0.948,37.191-2.033v106.167     l-39.611-37.503c-3.855-3.651-9.894-3.651-13.751,0l-40.137,38.003V84.218z M76.389,55.954     c17.553,5.992,39.512,12.479,64.831,17.915l-61.414,81.38L73.348,54.903C74.355,55.254,75.362,55.604,76.389,55.954z" fill="#0fb1d4"/>
			<path d="M5.012,213.256c0.481,0.277,12.019,6.885,32.545,15.717c1.289,0.555,2.629,0.817,3.948,0.817     c3.875,0,7.562-2.265,9.19-6.05c2.183-5.073-0.16-10.956-5.233-13.138c-19.348-8.325-30.368-14.62-30.478-14.682     c-4.784-2.75-10.895-1.105-13.65,3.68C-1.42,204.386,0.226,210.5,5.012,213.256z" fill="#0fb1d4"/>
			<path d="M75.441,233.078c-1.73,5.24,1.12,10.9,6.36,12.63c1.04,0.34,2.1,0.5,3.14,0.5c4.19,0.01,8.1-2.66,9.49-6.86     c1.73-5.25-1.12-10.9-6.36-12.63C82.821,224.978,77.171,227.828,75.441,233.078z" fill="#0fb1d4"/>
			<path d="M382.568,238.738c-0.8,0-1.6,0.1-2.38,0.29c-26.05,6.36-52.499,10.79-78.629,13.16c-2.66,0.24-5.06,1.5-6.77,3.55     c-1.71,2.05-2.521,4.65-2.28,7.31c0.23,2.5,1.38,4.81,3.23,6.49c1.85,1.68,4.229,2.61,6.72,2.61c0.3,0,0.609-0.02,0.91-0.05     c27.108-2.45,54.559-7.05,81.568-13.64c5.351-1.31,8.65-6.73,7.341-12.09C391.179,241.878,387.189,238.738,382.568,238.738z" fill="#0fb1d4"/>
			<path d="M131.931,239.228c-0.77-0.19-1.56-0.29-2.35-0.29c-4.63,0-8.63,3.15-9.71,7.66c-0.63,2.6-0.21,5.28,1.18,7.56     c1.4,2.28,3.6,3.88,6.19,4.51c27.01,6.52,54.46,11.05,81.58,13.48c0.3,0.02,0.6,0.04,0.9,0.04c2.49,0,4.87-0.93,6.72-2.61     c1.85-1.69,3-4,3.229-6.51c0.48-5.49-3.59-10.35-9.08-10.85C184.46,249.888,158.001,245.518,131.931,239.228z" fill="#0fb1d4"/>
			<path d="M427.179,225.858c-1.07,0-2.14,0.18-3.17,0.52c-2.53,0.85-4.58,2.63-5.78,5.02c-1.189,2.39-1.38,5.1-0.54,7.63     c1.37,4.09,5.181,6.84,9.49,6.84c1.07,0,2.14-0.18,3.17-0.52c5.23-1.75,8.061-7.42,6.32-12.65     C435.299,228.608,431.489,225.858,427.179,225.858z" fill="#0fb1d4"/>
			<path d="M256.07,254.268c-5.5,0-9.98,4.49-9.98,10s4.48,9.99,10,9.99c2.67,0,5.18-1.04,7.07-2.93c1.89-1.89,2.93-4.4,2.93-7.07     c0-5.51-4.49-10-10-10C256.08,254.258,256.08,254.258,256.07,254.268z" fill="#0fb1d4"/>
			<path d="M496.973,195.287c-0.108,0.063-11.103,6.412-30.405,14.812c-5.064,2.204-7.383,8.096-5.179,13.16     c1.638,3.765,5.314,6.012,9.174,6.012c1.332,0,2.686-0.268,3.985-0.833c20.485-8.915,32.001-15.583,32.48-15.863     c4.772-2.777,6.387-8.894,3.612-13.666C507.867,194.136,501.747,192.517,496.973,195.287z" fill="#0fb1d4"/>
			<path d="M472.447,299.324c21.564-9.261,33.841-16.347,34.581-16.778c4.773-2.778,6.391-8.9,3.612-13.673     c-2.778-4.772-8.898-6.391-13.673-3.612c-1.014,0.59-102.911,58.972-240.968,58.972c-71.921,0-133.565-15.835-172.613-29.118     c-42.444-14.439-68.146-29.079-68.401-29.225c-4.784-2.751-10.895-1.105-13.65,3.68c-2.755,4.786-1.109,10.9,3.677,13.656     c0.75,0.432,13.31,7.607,35.374,16.932L2.048,425.703c-1.167,3.821,0.053,7.97,3.102,10.552     c3.048,2.582,7.342,3.102,10.919,1.321l61.168-30.446l34.088,60.034c1.79,3.152,5.125,5.063,8.693,5.063     c0.366,0,0.735-0.02,1.104-0.061c3.972-0.44,7.3-3.203,8.464-7.025l39.039-128.177c6.057,0.996,12.258,1.913,18.596,2.738     l62.464,159.936c1.5,3.841,5.202,6.362,9.314,6.362c0.06,0,0.121-0.001,0.182-0.001c4.184-0.076,7.879-2.749,9.26-6.699     l55.773-159.57c6.783-0.886,13.41-1.88,19.874-2.962l39.421,128.396c1.172,3.816,4.501,6.57,8.469,7.005     c0.366,0.04,0.731,0.06,1.094,0.06c3.568,0,6.903-1.911,8.693-5.063l34.088-60.034l61.168,30.446     c3.577,1.781,7.87,1.261,10.919-1.321c3.049-2.582,4.268-6.731,3.101-10.552L472.447,299.324z M117.231,437.063l-27.279-48.042     c-2.621-4.618-8.396-6.381-13.152-4.015l-48.836,24.308L59.022,307.61c5.433,2.056,11.219,4.151,17.367,6.25     c5.067,1.729,10.509,3.5,16.285,5.275l-9.295,32.805c-1.506,5.314,1.581,10.842,6.895,12.347     c0.911,0.258,1.829,0.381,2.731,0.381c4.36,0,8.369-2.874,9.616-7.276l9.271-32.719c11.38,3.068,23.725,6.03,36.926,8.679     L117.231,437.063z M258.48,467.179l-48.827-125.022c14.877,1.318,30.364,2.075,46.348,2.075c15.924,0,31.353-0.76,46.18-2.083     L258.48,467.179z M436.288,385.007c-4.754-2.367-10.529-0.603-13.152,4.015l-27.313,48.103l-31.94-104.03     c11.866-2.422,23.035-5.099,33.43-7.876l12.497,32.439c1.529,3.972,5.317,6.408,9.333,6.408c1.195,0,2.411-0.216,3.593-0.671     c5.153-1.985,7.723-7.773,5.736-12.926l-11.854-30.768c6.806-2.076,13.164-4.155,19.026-6.178     c6.464-2.23,12.53-4.457,18.201-6.638l31.279,102.43L436.288,385.007z" fill="#0fb1d4"/>
		</g>
	</g>
</g>
<g>
</g>
<g>
</g>
<g>
</g>
<g>
</g>
<g>
</g>
<g>
</g>
<g>
</g>
<g>
</g>
<g>
</g>
<g>
</g>
<g>
</g>
<g>
</g>
<g>
</g>
<g>
</g>
<g>
</g>
</svg>
